<mxfile host="app.diagrams.net" modified="2023-11-25T11:11:39.851Z" agent="Mozilla/5.0 (Linux; Android 10; K) AppleWebKit/537.36 (KHTML, like Gecko) Chrome/115.0.0.0 Safari/537.36" version="22.1.4" etag="6zAaSR7lkLK-Q0ZqWkaa" type="github">
  <diagram name="第 1 页" id="em_7pPf3jR7ICfRy_kE6">
    <mxGraphModel>
      <root>
        <mxCell id="0" />
        <mxCell id="1" parent="0" />
      </root>
    </mxGraphModel>
  </diagram>
</mxfile>
